<svg version="1.1" id="Layer_1" xmlns="http://www.w3.org/2000/svg" xmlns:xlink="http://www.w3.org/1999/xlink" x="0px" y="0px"
	 width="100%" viewBox="0 0 500 499" enable-background="new 0 0 500 499" xml:space="preserve">
<path fill="#000100" opacity="1.000000" stroke="none" 
	d="
M283.000000,500.000000 
	C188.666687,500.000000 94.833382,500.000000 1.000050,500.000000 
	C1.000034,333.666718 1.000034,167.333450 1.000017,1.000140 
	C167.666565,1.000093 334.333130,1.000093 500.999756,1.000046 
	C500.999847,167.333191 500.999847,333.666382 500.999939,499.999786 
	C428.500000,500.000000 356.000000,500.000000 283.000000,500.000000 
M293.184479,63.443558 
	C280.352661,63.380775 267.520874,63.296387 254.688965,63.263084 
	C246.634598,63.242184 246.585358,63.298931 246.583359,71.340851 
	C246.573441,111.006889 246.578018,150.672928 246.583023,190.338959 
	C246.583191,191.671417 246.173889,193.297668 246.782333,194.269028 
	C247.748886,195.812073 249.414124,198.039001 250.782578,198.038162 
	C267.437378,198.027832 284.168671,198.560776 300.725708,197.145706 
	C318.502014,195.626434 330.702301,185.205338 337.294495,168.622772 
	C344.715759,149.954697 344.897675,130.560043 342.232819,111.024681 
	C340.681763,99.654167 337.101044,88.877632 329.779602,79.831612 
	C320.662659,68.567207 308.177124,64.199951 293.184479,63.443558 
M162.849045,63.332409 
	C147.584076,67.516960 138.149246,77.879013 132.836777,92.262535 
	C124.737312,114.191856 124.959930,136.664658 129.622498,159.192474 
	C131.520813,168.364456 135.237228,176.954147 141.298904,184.334015 
	C150.289963,195.280258 162.355347,199.139648 175.996384,200.438309 
	C200.044373,202.727753 219.816727,189.447998 226.195358,166.232086 
	C227.165207,162.702133 226.070358,161.296021 222.871262,160.568176 
	C217.677505,159.386505 212.503601,158.116592 207.327332,156.859192 
	C200.507370,155.202499 200.509888,155.192230 198.237427,161.791992 
	C194.075378,173.879578 186.992401,178.438354 175.226196,176.694778 
	C165.881927,175.310089 161.330688,168.879410 159.704773,160.575699 
	C155.993881,141.623734 156.859985,122.504822 159.012894,103.426849 
	C159.179245,101.952843 159.659439,100.496979 160.128494,99.077194 
	C163.307510,89.454567 168.876373,84.974503 178.164291,84.509949 
	C187.067383,84.064629 193.098145,87.963646 197.211243,96.964325 
	C198.036743,98.770752 198.121201,101.043861 199.278854,102.533165 
	C200.360168,103.924278 202.606628,105.607300 204.006622,105.349564 
	C210.709244,104.115631 217.348633,102.433426 223.881195,100.478477 
	C225.037521,100.132431 226.646484,97.239311 226.238876,96.367004 
	C222.888367,89.196762 220.336899,81.131767 215.226761,75.405167 
	C201.215179,59.703342 182.835846,58.887093 162.849045,63.332409 
M167.411316,307.244904 
	C174.397141,307.374969 181.384628,307.655731 188.368164,307.578613 
	C192.565338,307.532288 194.359772,309.043793 194.341843,313.407043 
	C194.231598,340.224854 194.246384,367.043427 194.322327,393.861450 
	C194.333618,397.850220 192.872665,399.629974 188.747406,399.512512 
	C182.589722,399.337219 176.422028,399.550690 170.259659,399.489838 
	C166.702606,399.454712 165.075607,400.969482 165.216858,404.612091 
	C165.371643,408.603943 165.319122,412.607117 165.246628,416.603363 
	C165.191101,419.664276 166.341797,421.156525 169.633224,421.148254 
	C195.784988,421.082581 221.937057,421.086853 248.088852,421.144073 
	C251.128525,421.150726 252.281342,419.764252 252.266693,416.928558 
	C252.246048,412.931122 252.105469,408.923157 252.338989,404.938629 
	C252.586578,400.713776 250.641159,399.344391 246.685699,399.455719 
	C241.026932,399.614929 235.353912,399.318115 229.698425,399.526550 
	C225.328400,399.687561 223.338730,398.197327 223.359497,393.545868 
	C223.478485,366.894714 223.475937,340.242432 223.359161,313.591248 
	C223.338791,308.946106 225.352875,307.446869 229.709702,307.580322 
	C235.700104,307.763794 241.701477,307.558075 247.697662,307.596405 
	C250.747849,307.615906 252.365509,306.423645 252.290390,303.170380 
	C252.190445,298.842010 252.265839,294.509705 252.254074,290.179138 
	C252.246277,287.314941 250.897446,285.956543 247.933853,286.029602 
	C243.772354,286.132202 239.606018,286.029694 235.441742,286.029419 
	C214.120316,286.028168 192.798431,285.970642 171.478226,286.133423 
	C169.482056,286.148682 165.790756,287.536896 165.777130,288.336914 
	C165.671936,294.507721 166.280029,300.690704 167.411316,307.244904 
M452.359619,380.500427 
	C453.803619,380.099091 455.238739,379.393585 456.693176,379.351288 
	C461.851318,379.201233 463.116486,376.301239 462.730438,371.735596 
	C462.478668,368.757629 462.539825,365.733582 462.710846,362.744507 
	C462.924469,359.010468 461.229309,357.476868 457.620514,356.802460 
	C444.722565,354.392120 439.930023,348.597473 439.844330,335.599945 
	C439.750977,321.438538 439.882019,307.275146 439.721161,293.114838 
	C439.566528,279.500824 432.657318,269.726471 420.559113,264.613617 
	C414.388672,262.005890 407.019684,261.514282 400.167725,261.385803 
	C384.878479,261.099121 387.245697,259.301910 387.068329,274.601257 
	C386.991028,281.268311 387.415039,281.593079 394.165039,281.659088 
	C412.467743,281.838074 415.083588,284.541168 415.203766,303.007416 
	C415.298035,317.496307 415.221039,331.996429 415.795654,346.468689 
	C416.192993,356.476471 421.792358,363.121826 431.314148,366.387085 
	C432.422333,366.767090 433.460144,367.352234 435.519745,368.295105 
	C432.662018,369.556793 430.859100,370.312439 429.090179,371.140686 
	C421.260681,374.806519 416.374756,380.670044 415.644348,389.507355 
	C415.370361,392.822235 415.236450,396.156006 415.209137,399.482605 
	C415.097137,413.142944 415.268707,426.809662 414.903259,440.462433 
	C414.661804,449.482788 410.199310,453.737091 401.226715,454.414917 
	C397.909698,454.665527 394.567169,454.590607 391.235901,454.637939 
	C388.411072,454.678070 386.940918,455.893219 387.042938,458.909058 
	C387.161194,462.403717 387.196350,465.912354 387.021820,469.402679 
	C386.830841,473.222229 388.401245,474.943359 392.267151,474.832947 
	C396.595337,474.709229 400.937317,474.652557 405.260681,474.847015 
	C422.340179,475.615112 440.707489,461.780273 439.907532,440.287933 
	C439.381134,426.145905 439.752502,411.967010 439.867706,397.805786 
	C439.944916,388.312714 442.836975,384.305939 452.359619,380.500427 
M409.451233,106.392456 
	C407.644409,115.180313 401.328339,119.159241 393.307343,120.566887 
	C388.811554,121.355881 386.790009,123.030869 387.209595,127.665390 
	C387.478943,130.639618 387.462982,133.675095 387.211639,136.652420 
	C386.867615,140.727341 388.404297,142.369690 392.550598,143.261276 
	C406.429535,146.245590 409.921143,150.898834 409.949615,164.981598 
	C409.978271,179.141373 409.755127,193.306992 410.091797,207.459351 
	C410.458069,222.855927 422.397888,236.274872 437.702301,238.262787 
	C444.591705,239.157669 451.661194,238.708267 458.649872,238.776382 
	C461.468597,238.803864 462.897522,237.334457 462.840576,234.404556 
	C462.766144,230.574554 462.702332,226.736740 462.865417,222.912140 
	C462.994324,219.888657 461.647430,218.688431 458.770569,218.642914 
	C454.776489,218.579742 450.747559,218.698181 446.799103,218.209259 
	C439.387299,217.291473 435.548584,213.143753 434.977600,205.675888 
	C434.660614,201.530334 434.687592,197.355789 434.633270,193.193344 
	C434.461700,180.040207 434.600250,166.875763 434.082306,153.736832 
	C433.708832,144.262711 428.080688,138.189178 419.554260,134.592773 
	C418.158600,134.004089 416.803650,133.319016 415.293182,132.614746 
	C415.941620,131.739365 416.076447,131.367447 416.329346,131.250122 
	C417.233704,130.830627 418.172516,130.482620 419.108124,130.133972 
	C428.336823,126.695023 433.289886,120.009483 434.059296,110.247490 
	C434.372925,106.267776 434.560974,102.270180 434.603424,98.278564 
	C434.741547,85.287277 434.548676,72.287697 434.947693,59.305592 
	C435.227539,50.200706 439.707214,45.970158 448.798065,45.728626 
	C465.420380,45.286991 462.588409,48.367470 462.819672,29.513130 
	C462.823761,29.180559 462.929504,28.722212 462.757141,28.535414 
	C461.744019,27.437386 460.668060,25.497568 459.602814,25.490831 
	C451.630157,25.440418 443.419769,24.638060 435.729645,26.227777 
	C419.707947,29.539822 410.216949,42.182278 409.993774,58.586128 
	C409.780762,74.238838 409.719849,89.893608 409.451233,106.392456 
M140.228592,286.042816 
	C125.896210,286.041321 111.563835,286.037842 97.231453,286.038879 
	C79.899254,286.040100 62.566204,286.139069 45.235466,285.981628 
	C40.970123,285.942871 39.104984,287.316803 39.375492,291.727631 
	C39.630054,295.878387 39.640503,300.070679 39.372501,304.219757 
	C39.083019,308.701416 41.035488,309.995148 45.275097,309.888062 
	C54.268665,309.660980 63.279343,310.042480 72.268677,309.743530 
	C77.175766,309.580322 78.635170,311.542664 78.564034,316.177521 
	C78.372253,328.673676 78.507469,341.174805 78.510559,353.673981 
	C78.515640,374.172638 78.605713,394.671936 78.454948,415.169464 
	C78.421906,419.661865 79.864952,421.507019 84.511818,421.199402 
	C89.489563,420.869843 94.506226,421.134979 99.505890,421.128113 
	C107.527237,421.117096 107.551292,421.112793 107.554588,413.097656 
	C107.567825,380.933075 107.548004,348.768494 107.581825,316.603943 
	C107.588715,310.048859 107.833290,309.857422 114.336906,309.834167 
	C123.169563,309.802582 132.009903,309.604004 140.832016,309.908844 
	C145.335663,310.064484 146.734146,308.372406 146.470596,304.116760 
	C146.203293,299.800140 146.233780,295.445374 146.456192,291.123901 
	C146.660889,287.146912 144.933884,285.636719 140.228592,286.042816 
M341.789612,400.465271 
	C342.899384,397.866272 343.922363,395.225769 345.140015,392.678345 
	C346.804962,389.195190 346.246246,387.352753 341.950806,387.397797 
	C332.805786,387.493744 323.658356,387.500183 314.513519,387.399048 
	C311.647034,387.367371 310.229950,388.568359 309.767242,391.306976 
	C308.825745,396.879059 307.794861,402.436066 306.816864,408.002075 
	C304.659241,420.281708 302.578949,432.575439 300.322540,444.836853 
	C299.554565,449.010223 300.917328,450.771271 305.208832,450.529999 
	C308.690002,450.334259 312.203552,450.301331 315.679535,450.537628 
	C319.425751,450.792328 321.358093,449.199646 322.762878,445.770416 
	C328.875519,430.848785 335.223724,416.023712 341.789612,400.465271 
M337.405518,355.064789 
	C345.882660,349.809387 345.420685,341.468567 344.652496,333.238037 
	C343.854462,324.688416 337.726624,319.852173 327.492157,319.101562 
	C315.317413,318.208679 306.715210,322.161469 305.160217,330.544769 
	C302.026337,347.440308 306.033081,358.893127 327.602325,357.725433 
	C330.679688,357.558838 333.692841,356.205322 337.405518,355.064789 
M76.067505,166.411072 
	C67.321877,160.152893 57.848705,160.317719 48.621887,164.463501 
	C45.547581,165.844849 42.194923,169.641693 41.538551,172.858521 
	C38.208450,189.179138 41.486534,201.275101 62.733459,200.572662 
	C65.041641,200.496338 67.693840,200.477264 69.551697,199.368240 
	C72.995552,197.312485 77.426086,195.106216 78.855202,191.831940 
	C82.496429,183.489441 82.890427,174.709274 76.067505,166.411072 
z"/>
<path fill="#467D1D" opacity="1.000000" stroke="none" 
	d="
M293.648621,63.475281 
	C308.177124,64.199951 320.662659,68.567207 329.779602,79.831612 
	C337.101044,88.877632 340.681763,99.654167 342.232819,111.024681 
	C344.897675,130.560043 344.715759,149.954697 337.294495,168.622772 
	C330.702301,185.205338 318.502014,195.626434 300.725708,197.145706 
	C284.168671,198.560776 267.437378,198.027832 250.782578,198.038162 
	C249.414124,198.039001 247.748886,195.812073 246.782333,194.269028 
	C246.173889,193.297668 246.583191,191.671417 246.583023,190.338959 
	C246.578018,150.672928 246.573441,111.006889 246.583359,71.340851 
	C246.585358,63.298931 246.634598,63.242184 254.688965,63.263084 
	C267.520874,63.296387 280.352661,63.380775 293.648621,63.475281 
M275.270538,161.483047 
	C275.270447,161.982056 275.261505,162.481262 275.271576,162.980057 
	C275.545471,176.552017 272.980530,175.635269 288.367218,175.272751 
	C302.488037,174.940033 310.579559,168.199310 312.008270,154.054932 
	C313.289825,141.367523 313.386505,128.494446 313.071411,115.726349 
	C312.525116,93.591354 303.838104,85.827415 281.714478,85.940773 
	C276.644714,85.966751 275.141541,87.684296 275.185669,92.625450 
	C275.387665,115.245155 275.272247,137.867691 275.270538,161.483047 
z"/>
<path fill="#467D1D" opacity="1.000000" stroke="none" 
	d="
M163.242783,63.217926 
	C182.835846,58.887093 201.215179,59.703342 215.226761,75.405167 
	C220.336899,81.131767 222.888367,89.196762 226.238876,96.367004 
	C226.646484,97.239311 225.037521,100.132431 223.881195,100.478477 
	C217.348633,102.433426 210.709244,104.115631 204.006622,105.349564 
	C202.606628,105.607300 200.360168,103.924278 199.278854,102.533165 
	C198.121201,101.043861 198.036743,98.770752 197.211243,96.964325 
	C193.098145,87.963646 187.067383,84.064629 178.164291,84.509949 
	C168.876373,84.974503 163.307510,89.454567 160.128494,99.077194 
	C159.659439,100.496979 159.179245,101.952843 159.012894,103.426849 
	C156.859985,122.504822 155.993881,141.623734 159.704773,160.575699 
	C161.330688,168.879410 165.881927,175.310089 175.226196,176.694778 
	C186.992401,178.438354 194.075378,173.879578 198.237427,161.791992 
	C200.509888,155.192230 200.507370,155.202499 207.327332,156.859192 
	C212.503601,158.116592 217.677505,159.386505 222.871262,160.568176 
	C226.070358,161.296021 227.165207,162.702133 226.195358,166.232086 
	C219.816727,189.447998 200.044373,202.727753 175.996384,200.438309 
	C162.355347,199.139648 150.289963,195.280258 141.298904,184.334015 
	C135.237228,176.954147 131.520813,168.364456 129.622498,159.192474 
	C124.959930,136.664658 124.737312,114.191856 132.836777,92.262535 
	C138.149246,77.879013 147.584076,67.516960 163.242783,63.217926 
z"/>
<path fill="#467C1D" opacity="1.000000" stroke="none" 
	d="
M167.039154,307.057404 
	C166.280029,300.690704 165.671936,294.507721 165.777130,288.336914 
	C165.790756,287.536896 169.482056,286.148682 171.478226,286.133423 
	C192.798431,285.970642 214.120316,286.028168 235.441742,286.029419 
	C239.606018,286.029694 243.772354,286.132202 247.933853,286.029602 
	C250.897446,285.956543 252.246277,287.314941 252.254074,290.179138 
	C252.265839,294.509705 252.190445,298.842010 252.290390,303.170380 
	C252.365509,306.423645 250.747849,307.615906 247.697662,307.596405 
	C241.701477,307.558075 235.700104,307.763794 229.709702,307.580322 
	C225.352875,307.446869 223.338791,308.946106 223.359161,313.591248 
	C223.475937,340.242432 223.478485,366.894714 223.359497,393.545868 
	C223.338730,398.197327 225.328400,399.687561 229.698425,399.526550 
	C235.353912,399.318115 241.026932,399.614929 246.685699,399.455719 
	C250.641159,399.344391 252.586578,400.713776 252.338989,404.938629 
	C252.105469,408.923157 252.246048,412.931122 252.266693,416.928558 
	C252.281342,419.764252 251.128525,421.150726 248.088852,421.144073 
	C221.937057,421.086853 195.784988,421.082581 169.633224,421.148254 
	C166.341797,421.156525 165.191101,419.664276 165.246628,416.603363 
	C165.319122,412.607117 165.371643,408.603943 165.216858,404.612091 
	C165.075607,400.969482 166.702606,399.454712 170.259659,399.489838 
	C176.422028,399.550690 182.589722,399.337219 188.747406,399.512512 
	C192.872665,399.629974 194.333618,397.850220 194.322327,393.861450 
	C194.246384,367.043427 194.231598,340.224854 194.341843,313.407043 
	C194.359772,309.043793 192.565338,307.532288 188.368164,307.578613 
	C181.384628,307.655731 174.397141,307.374969 167.039154,307.057404 
z"/>
<path fill="#457B1D" opacity="1.000000" stroke="none" 
	d="
M451.995209,380.647522 
	C442.836975,384.305939 439.944916,388.312714 439.867706,397.805786 
	C439.752502,411.967010 439.381134,426.145905 439.907532,440.287933 
	C440.707489,461.780273 422.340179,475.615112 405.260681,474.847015 
	C400.937317,474.652557 396.595337,474.709229 392.267151,474.832947 
	C388.401245,474.943359 386.830841,473.222229 387.021820,469.402679 
	C387.196350,465.912354 387.161194,462.403717 387.042938,458.909058 
	C386.940918,455.893219 388.411072,454.678070 391.235901,454.637939 
	C394.567169,454.590607 397.909698,454.665527 401.226715,454.414917 
	C410.199310,453.737091 414.661804,449.482788 414.903259,440.462433 
	C415.268707,426.809662 415.097137,413.142944 415.209137,399.482605 
	C415.236450,396.156006 415.370361,392.822235 415.644348,389.507355 
	C416.374756,380.670044 421.260681,374.806519 429.090179,371.140686 
	C430.859100,370.312439 432.662018,369.556793 435.519745,368.295105 
	C433.460144,367.352234 432.422333,366.767090 431.314148,366.387085 
	C421.792358,363.121826 416.192993,356.476471 415.795654,346.468689 
	C415.221039,331.996429 415.298035,317.496307 415.203766,303.007416 
	C415.083588,284.541168 412.467743,281.838074 394.165039,281.659088 
	C387.415039,281.593079 386.991028,281.268311 387.068329,274.601257 
	C387.245697,259.301910 384.878479,261.099121 400.167725,261.385803 
	C407.019684,261.514282 414.388672,262.005890 420.559113,264.613617 
	C432.657318,269.726471 439.566528,279.500824 439.721161,293.114838 
	C439.882019,307.275146 439.750977,321.438538 439.844330,335.599945 
	C439.930023,348.597473 444.722565,354.392120 457.620514,356.802460 
	C461.229309,357.476868 462.924469,359.010468 462.710846,362.744507 
	C462.539825,365.733582 462.478668,368.757629 462.730438,371.735596 
	C463.116486,376.301239 461.851318,379.201233 456.693176,379.351288 
	C455.238739,379.393585 453.803619,380.099091 451.995209,380.647522 
z"/>
<path fill="#457B1D" opacity="1.000000" stroke="none" 
	d="
M409.521667,105.969963 
	C409.719849,89.893608 409.780762,74.238838 409.993774,58.586128 
	C410.216949,42.182278 419.707947,29.539822 435.729645,26.227777 
	C443.419769,24.638060 451.630157,25.440418 459.602814,25.490831 
	C460.668060,25.497568 461.744019,27.437386 462.757141,28.535414 
	C462.929504,28.722212 462.823761,29.180559 462.819672,29.513130 
	C462.588409,48.367470 465.420380,45.286991 448.798065,45.728626 
	C439.707214,45.970158 435.227539,50.200706 434.947693,59.305592 
	C434.548676,72.287697 434.741547,85.287277 434.603424,98.278564 
	C434.560974,102.270180 434.372925,106.267776 434.059296,110.247490 
	C433.289886,120.009483 428.336823,126.695023 419.108124,130.133972 
	C418.172516,130.482620 417.233704,130.830627 416.329346,131.250122 
	C416.076447,131.367447 415.941620,131.739365 415.293182,132.614746 
	C416.803650,133.319016 418.158600,134.004089 419.554260,134.592773 
	C428.080688,138.189178 433.708832,144.262711 434.082306,153.736832 
	C434.600250,166.875763 434.461700,180.040207 434.633270,193.193344 
	C434.687592,197.355789 434.660614,201.530334 434.977600,205.675888 
	C435.548584,213.143753 439.387299,217.291473 446.799103,218.209259 
	C450.747559,218.698181 454.776489,218.579742 458.770569,218.642914 
	C461.647430,218.688431 462.994324,219.888657 462.865417,222.912140 
	C462.702332,226.736740 462.766144,230.574554 462.840576,234.404556 
	C462.897522,237.334457 461.468597,238.803864 458.649872,238.776382 
	C451.661194,238.708267 444.591705,239.157669 437.702301,238.262787 
	C422.397888,236.274872 410.458069,222.855927 410.091797,207.459351 
	C409.755127,193.306992 409.978271,179.141373 409.949615,164.981598 
	C409.921143,150.898834 406.429535,146.245590 392.550598,143.261276 
	C388.404297,142.369690 386.867615,140.727341 387.211639,136.652420 
	C387.462982,133.675095 387.478943,130.639618 387.209595,127.665390 
	C386.790009,123.030869 388.811554,121.355881 393.307343,120.566887 
	C401.328339,119.159241 407.644409,115.180313 409.521667,105.969963 
z"/>
<path fill="#477E1D" opacity="1.000000" stroke="none" 
	d="
M140.690323,286.046204 
	C144.933884,285.636719 146.660889,287.146912 146.456192,291.123901 
	C146.233780,295.445374 146.203293,299.800140 146.470596,304.116760 
	C146.734146,308.372406 145.335663,310.064484 140.832016,309.908844 
	C132.009903,309.604004 123.169563,309.802582 114.336906,309.834167 
	C107.833290,309.857422 107.588715,310.048859 107.581825,316.603943 
	C107.548004,348.768494 107.567825,380.933075 107.554588,413.097656 
	C107.551292,421.112793 107.527237,421.117096 99.505890,421.128113 
	C94.506226,421.134979 89.489563,420.869843 84.511818,421.199402 
	C79.864952,421.507019 78.421906,419.661865 78.454948,415.169464 
	C78.605713,394.671936 78.515640,374.172638 78.510559,353.673981 
	C78.507469,341.174805 78.372253,328.673676 78.564034,316.177521 
	C78.635170,311.542664 77.175766,309.580322 72.268677,309.743530 
	C63.279343,310.042480 54.268665,309.660980 45.275097,309.888062 
	C41.035488,309.995148 39.083019,308.701416 39.372501,304.219757 
	C39.640503,300.070679 39.630054,295.878387 39.375492,291.727631 
	C39.104984,287.316803 40.970123,285.942871 45.235466,285.981628 
	C62.566204,286.139069 79.899254,286.040100 97.231453,286.038879 
	C111.563835,286.037842 125.896210,286.041321 140.690323,286.046204 
z"/>
<path fill="#467C1D" opacity="1.000000" stroke="none" 
	d="
M341.637970,400.814392 
	C335.223724,416.023712 328.875519,430.848785 322.762878,445.770416 
	C321.358093,449.199646 319.425751,450.792328 315.679535,450.537628 
	C312.203552,450.301331 308.690002,450.334259 305.208832,450.529999 
	C300.917328,450.771271 299.554565,449.010223 300.322540,444.836853 
	C302.578949,432.575439 304.659241,420.281708 306.816864,408.002075 
	C307.794861,402.436066 308.825745,396.879059 309.767242,391.306976 
	C310.229950,388.568359 311.647034,387.367371 314.513519,387.399048 
	C323.658356,387.500183 332.805786,387.493744 341.950806,387.397797 
	C346.246246,387.352753 346.804962,389.195190 345.140015,392.678345 
	C343.922363,395.225769 342.899384,397.866272 341.637970,400.814392 
z"/>
<path fill="#467C1D" opacity="1.000000" stroke="none" 
	d="
M337.070618,355.232971 
	C333.692841,356.205322 330.679688,357.558838 327.602325,357.725433 
	C306.033081,358.893127 302.026337,347.440308 305.160217,330.544769 
	C306.715210,322.161469 315.317413,318.208679 327.492157,319.101562 
	C337.726624,319.852173 343.854462,324.688416 344.652496,333.238037 
	C345.420685,341.468567 345.882660,349.809387 337.070618,355.232971 
z"/>
<path fill="#467C1D" opacity="1.000000" stroke="none" 
	d="
M76.327271,166.665421 
	C82.890427,174.709274 82.496429,183.489441 78.855202,191.831940 
	C77.426086,195.106216 72.995552,197.312485 69.551697,199.368240 
	C67.693840,200.477264 65.041641,200.496338 62.733459,200.572662 
	C41.486534,201.275101 38.208450,189.179138 41.538551,172.858521 
	C42.194923,169.641693 45.547581,165.844849 48.621887,164.463501 
	C57.848705,160.317719 67.321877,160.152893 76.327271,166.665421 
z"/>
<path fill="#020301" opacity="1.000000" stroke="none" 
	d="
M275.270691,160.986130 
	C275.272247,137.867691 275.387665,115.245155 275.185669,92.625450 
	C275.141541,87.684296 276.644714,85.966751 281.714478,85.940773 
	C303.838104,85.827415 312.525116,93.591354 313.071411,115.726349 
	C313.386505,128.494446 313.289825,141.367523 312.008270,154.054932 
	C310.579559,168.199310 302.488037,174.940033 288.367218,175.272751 
	C272.980530,175.635269 275.545471,176.552017 275.271576,162.980057 
	C275.261505,162.481262 275.270447,161.982056 275.270691,160.986130 
z"/>
</svg>