<?xml version="1.0" encoding="UTF-8" standalone="no"?>
<!-- Generated by Pixelmator Pro Trial 3.2.3 -->

<svg
   width="800"
   height="800"
   viewBox="0 0 800 800"
   version="1.1"
   id="svg133"
   sodipodi:docname="github.svg"
   inkscape:version="1.2.2 (b0a8486, 2022-12-01)"
   xmlns:inkscape="http://www.inkscape.org/namespaces/inkscape"
   xmlns:sodipodi="http://sodipodi.sourceforge.net/DTD/sodipodi-0.dtd"
   xmlns="http://www.w3.org/2000/svg"
   xmlns:svg="http://www.w3.org/2000/svg">
  <defs
     id="defs137" />
  <sodipodi:namedview
     id="namedview135"
     pagecolor="#505050"
     bordercolor="#eeeeee"
     borderopacity="1"
     inkscape:showpageshadow="0"
     inkscape:pageopacity="0"
     inkscape:pagecheckerboard="0"
     inkscape:deskcolor="#505050"
     showgrid="false"
     inkscape:zoom="0.51375"
     inkscape:cx="291.9708"
     inkscape:cy="399.02676"
     inkscape:window-width="1920"
     inkscape:window-height="972"
     inkscape:window-x="1440"
     inkscape:window-y="25"
     inkscape:window-maximized="1"
     inkscape:current-layer="svg133" />
  <path
     id="Path"
     fill="none"
     stroke="none"
     d="M 0 0 L 800 0 L 800 800 L 0 800 Z" />
  <path
     id="path1"
     fill="#008000"
     stroke="none"
     d="M 405.09532,15.45461 C 212.85487,14.729517 48.643747,153.93908 17.891876,343.70533 -12.859988,533.47162 98.983594,717.41622 281.61471,777.43956 c 19.53805,3.12604 25.79022,-8.98753 25.79022,-19.5381 V 691.86273 C 199.16399,715.30842 176.10906,640.67302 176.10906,640.67302 168.81145,616.40377 152.9915,595.588 131.56227,582.05878 c -35.559304,-24.22717 2.73532,-23.44568 2.73532,-23.44568 24.84951,3.21447 46.86868,17.60616 59.78651,39.07613 22.59178,40.17049 73.32788,54.64158 113.7116,32.43321 1.78036,-19.80934 10.49893,-38.35375 24.61797,-52.36206 -83.62297,-8.59673 -176.62421,-42.2022 -176.62421,-191.08234 -1.13026,-39.01914 12.87149,-76.96395 39.07615,-105.89638 -11.89721,-33.62763 -10.4994,-70.52983 3.90763,-103.16104 0,0 32.82397,-10.55057 107.45944,39.07612 63.99097,-17.20219 131.38971,-17.20219 195.38075,0 74.63543,-50.40823 107.45941,-39.07612 107.45941,-39.07612 14.40705,32.63121 15.8048,69.53341 3.90758,103.16104 26.20469,28.93243 40.20641,66.87724 39.07613,105.89638 0,149.27087 -91.43819,182.0948 -178.57795,191.86389 18.98644,19.08468 28.81405,45.43418 26.9625,72.29091 v 107.06862 c 0,10.55057 6.25224,23.05495 26.18103,19.5381 C 708.89782,717.52891 820.71118,534.14655 790.49244,344.67213 760.27371,155.19774 596.96418,15.693947 405.09532,15.45461 Z"
     style="stroke-width:1.17228" />
</svg>
