<?xml version="1.0" encoding="UTF-8"?>
<!-- Generated by Pixelmator Pro Trial 3.2.3 -->
<svg width="800" height="800" viewBox="0 0 800 800" xmlns="http://www.w3.org/2000/svg" xmlns:xlink="http://www.w3.org/1999/xlink">
    <path id="Path" fill="none" stroke="none" d="M 0 0 L 800 0 L 800 800 L 0 800 Z"/>
    <path id="path1" fill="#008000" stroke="none" d="M 400 66.666687 C 236.012131 66.048157 95.934258 184.798828 69.701828 346.676117 C 43.469406 508.553436 138.875916 665.464661 294.666687 716.666687 C 311.333344 719.333313 316.666656 709 316.666656 700 L 316.666656 643.666626 C 224.333328 663.666626 204.666656 600 204.666656 600 C 198.441544 579.297485 184.946564 561.540894 166.666672 550 C 136.333344 529.333374 169 530 169 530 C 190.19751 532.742065 208.980637 545.018677 220 563.333313 C 239.271591 597.600159 282.55127 609.944519 317 591 C 318.518707 574.101929 325.955963 558.282898 338 546.333313 C 266.666656 539 187.333328 510.333344 187.333328 383.333344 C 186.369171 350.048645 198.313156 317.680389 220.666656 293 C 210.517914 264.314453 211.710297 232.835571 224 205 C 224 205 252 196 315.666687 238.333313 C 370.253235 223.659241 427.746735 223.659241 482.333344 238.333313 C 546 195.333313 574 205 574 205 C 586.289734 232.835571 587.482056 264.314453 577.333313 293 C 599.686829 317.680389 611.630798 350.048645 610.666626 383.333344 C 610.666626 510.666656 532.666626 538.666626 458.333344 547 C 474.529449 563.279907 482.91275 585.756958 481.333313 608.666687 L 481.333313 700 C 481.333313 709 486.666687 719.666687 503.666656 716.666687 C 659.154236 665.560791 754.534973 509.129181 728.757324 347.500824 C 702.979675 185.872498 563.670898 66.87085 400 66.666687 Z"/>
</svg>
