<?xml version="1.0" encoding="UTF-8" standalone="no"?>
<!-- Generated by Pixelmator Pro Trial 3.2.3 -->

<svg
   width="800"
   height="800"
   viewBox="0 0 800 800"
   version="1.1"
   id="svg133"
   sodipodi:docname="github.svg"
   inkscape:version="1.2.2 (b0a8486, 2022-12-01)"
   xmlns:inkscape="http://www.inkscape.org/namespaces/inkscape"
   xmlns:sodipodi="http://sodipodi.sourceforge.net/DTD/sodipodi-0.dtd"
   xmlns="http://www.w3.org/2000/svg"
   xmlns:svg="http://www.w3.org/2000/svg">
  <defs
     id="defs137" />
  <sodipodi:namedview
     id="namedview135"
     pagecolor="#505050"
     bordercolor="#eeeeee"
     borderopacity="1"
     inkscape:showpageshadow="0"
     inkscape:pageopacity="0"
     inkscape:pagecheckerboard="0"
     inkscape:deskcolor="#505050"
     showgrid="false"
     inkscape:zoom="1.0275"
     inkscape:cx="345.49878"
     inkscape:cy="400"
     inkscape:window-width="1390"
     inkscape:window-height="972"
     inkscape:window-x="1609"
     inkscape:window-y="25"
     inkscape:window-maximized="0"
     inkscape:current-layer="svg133" />
  <path
     id="Path"
     fill="none"
     stroke="none"
     d="M 0 0 L 800 0 L 800 800 L 0 800 Z" />
  <path
     id="path1"
     fill="#008000"
     stroke="none"
     d="M 425.45274,66.66687 C 248.99124,66.001292 98.258439,193.78465 70.030657,367.97503 41.802883,542.16544 144.46643,711.01202 312.10732,766.10869 c 17.93439,2.86946 23.67338,-8.24985 23.67338,-17.93443 v -60.61833 c -99.3566,21.52129 -120.5192,-46.9881 -120.5192,-46.9881 -6.69863,-22.27724 -21.22009,-41.38447 -40.89043,-53.80322 -32.64062,-22.23862 2.51081,-21.52128 2.51081,-21.52128 22.80988,2.95063 43.02174,16.16106 54.87928,35.86879 20.73747,36.87333 67.30919,50.15665 104.37824,29.77113 1.63423,-18.18341 9.63719,-35.20571 22.59735,-48.06423 -76.75927,-7.89112 -162.12703,-38.73828 -162.12703,-175.39845 -1.0375,-35.81648 11.815,-70.64681 35.8688,-97.20449 -10.92069,-30.8675 -9.63761,-64.7408 3.5869,-94.69366 0,0 30.1298,-9.68458 98.63925,35.86878 58.73864,-15.79024 120.60534,-15.79024 179.34405,0 68.50941,-46.27076 98.63922,-35.86878 98.63922,-35.86878 13.22454,29.95286 14.50756,63.82616 3.58686,94.69366 24.05382,26.55768 36.9063,61.38801 35.86879,97.20449 0,137.01883 -83.93302,167.1486 -163.92042,176.11585 17.42805,17.51823 26.44902,41.70498 24.74945,66.35732 v 98.28052 c 0,9.68458 5.73905,21.16262 24.03211,17.93443 C 704.31937,711.11546 806.95518,542.78498 779.21677,368.86247 751.47837,194.93999 601.57316,66.886562 425.45274,66.66687 Z"
     style="stroke-width:1.07606" />
</svg>
