<?xml version="1.0" encoding="UTF-8" standalone="no"?>
<svg
   viewBox="0 0 448 512"
   version="1.1"
   id="svg1269"
   sodipodi:docname="mastodon.svg"
   inkscape:version="1.2.2 (b0a8486, 2022-12-01)"
   xmlns:inkscape="http://www.inkscape.org/namespaces/inkscape"
   xmlns:sodipodi="http://sodipodi.sourceforge.net/DTD/sodipodi-0.dtd"
   xmlns="http://www.w3.org/2000/svg"
   xmlns:svg="http://www.w3.org/2000/svg">
  <defs
     id="defs1273" />
  <sodipodi:namedview
     id="namedview1271"
     pagecolor="#505050"
     bordercolor="#eeeeee"
     borderopacity="1"
     inkscape:showpageshadow="0"
     inkscape:pageopacity="0"
     inkscape:pagecheckerboard="0"
     inkscape:deskcolor="#505050"
     showgrid="false"
     inkscape:zoom="1.5507812"
     inkscape:cx="224.0806"
     inkscape:cy="256"
     inkscape:window-width="1920"
     inkscape:window-height="972"
     inkscape:window-x="1440"
     inkscape:window-y="25"
     inkscape:window-maximized="1"
     inkscape:current-layer="svg1269" />
  <!--! Font Awesome Pro 6.2.1 by @fontawesome - https://fontawesome.com License - https://fontawesome.com/license (Commercial License) Copyright 2022 Fonticons, Inc. -->
  <path
     d="M433 179.11c0-97.2-63.71-125.7-63.71-125.7-62.52-28.7-228.56-28.4-290.48 0 0 0-63.72 28.5-63.72 125.7 0 115.7-6.6 259.4 105.63 289.1 40.51 10.7 75.32 13 103.33 11.4 50.81-2.8 79.32-18.1 79.32-18.1l-1.7-36.9s-36.31 11.4-77.12 10.1c-40.41-1.4-83-4.4-89.63-54a102.54 102.54 0 0 1-.9-13.9c85.63 20.9 158.65 9.1 178.75 6.7 56.12-6.7 105-41.3 111.23-72.9 9.8-49.8 9-121.5 9-121.5zm-75.12 125.2h-46.63v-114.2c0-49.7-64-51.6-64 6.9v62.5h-46.33V197c0-58.5-64-56.6-64-6.9v114.2H90.19c0-122.1-5.2-147.9 18.41-175 25.9-28.9 79.82-30.8 103.83 6.1l11.6 19.5 11.6-19.5c24.11-37.1 78.12-34.8 103.83-6.1 23.71 27.3 18.4 53 18.4 175z"
     id="path1267" />
  <path
     style="fill:#008000;fill-opacity:1;stroke-width:0.644836"
     d="m 195.70781,479.34142 c -23.4738,-0.82009 -49.82797,-4.82677 -73.98303,-11.24781 C 98.330103,461.8747 80.693283,451.71373 65.128463,435.48721 37.96381,407.16772 23.050699,363.66437 17.746918,297.26952 16.307991,279.25646 15.764722,262.17579 15.3883,223.11335 14.878903,170.25177 15.640504,156.12265 20.036492,136.88073 24.444054,117.58814 32.55489,99.645537 43.60587,84.741079 52.459506,72.800181 66.433815,60.367753 77.380353,54.693164 96.380647,44.84358 132.53355,37.426229 179.5869,33.723841 c 16.73322,-1.316651 76.6893,-1.106442 93.50126,0.327821 35.0967,2.99417 60.42469,7.388128 80.92695,14.039393 11.61377,3.767692 17.24015,6.395558 24.84467,11.603999 19.96283,13.672806 36.31766,36.498407 45.09133,62.931656 6.7277,20.26916 8.47751,33.808 8.43787,65.2865 -0.0527,41.84453 -2.80886,79.75261 -7.83078,107.7036 -2.73052,15.19759 -7.76793,24.044 -20.97452,36.83423 -12.82379,12.41951 -28.41771,22.09722 -48.17401,29.89718 -18.44848,7.28363 -36.38611,10.82159 -72.00413,14.20186 -47.49741,4.50765 -99.16908,1.45839 -141.9786,-8.37851 -3.78698,-0.87018 -7.05146,-1.58215 -7.25441,-1.58215 -0.59335,0 -0.42551,6.99462 0.30986,12.91364 1.06641,8.58352 2.98929,15.23137 6.50273,22.48136 2.79101,5.75924 4.0311,7.4883 8.83361,12.31666 12.69413,12.76245 28.11127,17.85209 60.72031,20.0455 27.86872,1.87455 56.50056,-0.62092 82.77846,-7.21474 4.21027,-1.05647 7.73917,-1.83514 7.842,-1.73038 0.25763,0.26247 1.59113,27.04926 1.59113,31.96202 0,4.71472 0.45888,4.36566 -11.73637,8.92758 -25.98109,9.71884 -59.45755,14.30278 -95.30645,13.05036 z M 137.18,243.5869 c 0.20156,-59.39214 0.24431,-61.22507 1.53103,-65.64052 4.91384,-16.862 18.90842,-26.92967 33.65631,-24.21226 12.83745,2.36539 22.59809,12.79088 26.6337,28.44781 1.34625,5.22306 1.42148,7.05965 1.69632,41.41505 l 0.2876,35.94962 h 23.09564 23.09565 l 0.28759,-35.94962 c 0.27485,-34.3554 0.35008,-36.19199 1.69633,-41.41505 4.08879,-15.86329 13.89581,-26.1823 27.06826,-28.48142 11.61032,-2.02646 23.91225,4.58301 29.96348,16.09851 4.74009,9.0204 4.52441,5.6865 4.77333,73.78788 l 0.22332,61.09824 h 23.40373 23.40373 l 0.42161,-49.8136 c 0.51471,-60.81387 -0.11608,-79.61575 -3.16295,-94.27831 -5.4799,-26.37106 -23.45269,-44.70301 -50.4358,-51.4437 -8.09873,-2.02314 -23.79438,-2.01565 -31.92867,0.0153 -10.85765,2.71085 -19.26496,7.04736 -27.3286,14.09615 -5.17116,4.52034 -8.75072,9.3446 -15.58887,21.00951 -3.06334,5.22562 -5.71481,9.50479 -5.89214,9.50924 -0.17733,0.005 -2.91602,-4.38804 -6.08599,-9.7611 -7.16388,-12.14272 -11.47027,-17.59183 -18.08559,-22.88475 -25.20415,-20.16581 -65.86476,-17.69936 -88.97592,5.39723 -12.028055,12.02047 -17.842247,25.77215 -19.978222,47.25231 -1.557112,15.65887 -1.811035,31.59363 -1.311294,82.28813 l 0.479236,48.61363 h 23.42492 23.42491 L 137.18,243.58693 Z"
     id="path1275" />
</svg>
