<?xml version="1.0" encoding="UTF-8" standalone="no"?>
<!-- Uploaded to: SVG Repo, www.svgrepo.com, Generator: SVG Repo Mixer Tools -->

<svg
   aria-label="Plex"
   role="img"
   viewBox="0 0 512 512"
   version="1.1"
   id="svg1565"
   sodipodi:docname="plex-svgrepo-com.svg.2023_02_07_13_42_41.0.svg"
   inkscape:version="1.2.2 (b0a8486, 2022-12-01)"
   xmlns:inkscape="http://www.inkscape.org/namespaces/inkscape"
   xmlns:sodipodi="http://sodipodi.sourceforge.net/DTD/sodipodi-0.dtd"
   xmlns="http://www.w3.org/2000/svg"
   xmlns:svg="http://www.w3.org/2000/svg">
  <defs
     id="defs1569" />
  <sodipodi:namedview
     id="namedview1567"
     pagecolor="#505050"
     bordercolor="#eeeeee"
     borderopacity="1"
     inkscape:showpageshadow="0"
     inkscape:pageopacity="0"
     inkscape:pagecheckerboard="0"
     inkscape:deskcolor="#505050"
     showgrid="false"
     inkscape:zoom="1.6054688"
     inkscape:cx="232.64234"
     inkscape:cy="260.98297"
     inkscape:window-width="1920"
     inkscape:window-height="972"
     inkscape:window-x="1440"
     inkscape:window-y="25"
     inkscape:window-maximized="1"
     inkscape:current-layer="svg1565" />
  <path
     id="rect1561"
     style="fill:#008000;fill-opacity:1"
     d="M 76.800781,0 C 34.253622,0 0,34.253622 0,76.800781 V 435.19922 C 0,477.74638 34.253622,512 76.800781,512 H 435.19922 C 477.74638,512 512,477.74638 512,435.19922 V 76.800781 C 512,34.253622 477.74638,0 435.19922,0 Z M 271.05859,324.67969 c 2.06026,-0.11789 3.67411,2.20775 2.07227,5.71289 -0.31555,0.6905 -0.14649,0.32229 -0.50781,1.10351 -1.28671,2.74199 -2.62724,5.46161 -4.14258,8.08594 -1.94279,3.33726 -4.03615,6.59983 -5.75977,10.05664 -1.21749,2.66672 -2.29964,5.38186 -3.29882,8.13867 -2.10843,5.38975 -4.23621,10.77255 -6.33985,16.16407 -3.29589,8.29629 -6.40681,16.69574 -10.66992,24.5625 -3.3905,5.80308 -7.02621,11.7501 -12.25391,16.10156 -4.73912,3.94478 -8.23854,-0.98401 -3.61914,-5.06836 4.42925,-3.9162 7.55306,-9.11003 10.49219,-14.16992 4.08623,-7.60801 7.08237,-15.7182 10.26367,-23.72657 2.09957,-5.38132 4.22202,-10.75317 6.32617,-16.13281 1.03838,-2.86467 2.16662,-5.68562 3.43164,-8.45703 1.78845,-3.655 3.99948,-7.08683 6.04493,-10.60156 1.42226,-2.46592 2.67652,-5.02366 3.88476,-7.59961 0.34279,-0.74143 0.18348,-0.39057 0.48242,-1.04492 0.96084,-2.10321 2.3576,-3.05427 3.59375,-3.125 z" />
  <path
     d="m256 70h-108l108 186-108 186h108l108-186z"
     fill="#e5a00d"
     id="path1563" />
  <path
     style="fill:#000000;fill-opacity:1;stroke-width:0.653068"
     d="m 140.75948,442.35322 c 0.91862,-1.48229 26.73882,-43.30594 57.37825,-92.94144 30.6394,-49.63549 56.15173,-90.95882 56.69405,-91.82961 0.9568,-1.53634 -0.7418,-4.38151 -57.28083,-95.94614 L 139.28409,67.273177 196.96332,67.11129 c 31.72358,-0.08904 57.8995,0.05346 58.16871,0.316655 1.55338,1.518676 116.45244,188.537605 116.19297,189.124995 -0.17313,0.39191 -26.37092,42.89086 -58.21732,94.44211 l -57.90252,93.72955 -58.05797,0.16185 -58.05796,0.16186 z"
     id="path1639" />
</svg>
