<?xml version="1.0" encoding="UTF-8" standalone="no"?>
<svg
   viewBox="0 0 496 512"
   version="1.1"
   id="svg1247"
   sodipodi:docname="spotify.svg"
   inkscape:version="1.2.2 (b0a8486, 2022-12-01)"
   xmlns:inkscape="http://www.inkscape.org/namespaces/inkscape"
   xmlns:sodipodi="http://sodipodi.sourceforge.net/DTD/sodipodi-0.dtd"
   xmlns="http://www.w3.org/2000/svg"
   xmlns:svg="http://www.w3.org/2000/svg">
  <defs
     id="defs1251" />
  <sodipodi:namedview
     id="namedview1249"
     pagecolor="#505050"
     bordercolor="#eeeeee"
     borderopacity="1"
     inkscape:showpageshadow="0"
     inkscape:pageopacity="0"
     inkscape:pagecheckerboard="0"
     inkscape:deskcolor="#505050"
     showgrid="false"
     inkscape:zoom="1.5507812"
     inkscape:cx="247.93955"
     inkscape:cy="256"
     inkscape:window-width="1920"
     inkscape:window-height="972"
     inkscape:window-x="1440"
     inkscape:window-y="25"
     inkscape:window-maximized="1"
     inkscape:current-layer="svg1247" />
  <!--! Font Awesome Pro 6.2.1 by @fontawesome - https://fontawesome.com License - https://fontawesome.com/license (Commercial License) Copyright 2022 Fonticons, Inc. -->
  <path
     d="M248 8C111.1 8 0 119.1 0 256s111.1 248 248 248 248-111.1 248-248S384.9 8 248 8zm100.7 364.9c-4.2 0-6.8-1.3-10.7-3.6-62.4-37.6-135-39.2-206.7-24.5-3.9 1-9 2.6-11.9 2.6-9.7 0-15.8-7.7-15.8-15.8 0-10.3 6.1-15.2 13.6-16.8 81.9-18.1 165.6-16.5 237 26.2 6.1 3.9 9.7 7.4 9.7 16.5s-7.1 15.4-15.2 15.4zm26.9-65.6c-5.2 0-8.7-2.3-12.3-4.2-62.5-37-155.7-51.9-238.6-29.4-4.8 1.3-7.4 2.6-11.9 2.6-10.7 0-19.4-8.7-19.4-19.4s5.2-17.8 15.5-20.7c27.8-7.8 56.2-13.6 97.8-13.6 64.9 0 127.6 16.1 177 45.5 8.1 4.8 11.3 11 11.3 19.7-.1 10.8-8.5 19.5-19.4 19.5zm31-76.2c-5.2 0-8.4-1.3-12.9-3.9-71.2-42.5-198.5-52.7-280.9-29.7-3.6 1-8.1 2.6-12.9 2.6-13.2 0-23.3-10.3-23.3-23.6 0-13.6 8.4-21.3 17.4-23.9 35.2-10.3 74.6-15.2 117.5-15.2 73 0 149.5 15.2 205.4 47.8 7.8 4.5 12.9 10.7 12.9 22.6 0 13.6-11 23.3-23.2 23.3z"
     id="path1245" />
  <path
     style="fill:#008000;fill-opacity:1;stroke-width:0.644836"
     d="M 238.267,503.54961 C 201.81623,501.60399 170.09156,493.55312 139.28463,478.43055 90.401609,454.43473 50.697182,415.01994 26.247859,366.21834 13.57529,340.92351 5.5895008,313.84492 1.8254043,283.40554 0.20551106,270.30584 0.21396848,240.9903 1.84131,228.27204 7.1833329,186.52222 20.119734,151.31807 42.242434,118.32746 98.279993,34.761109 198.69617,-6.591635 297.25405,13.310214 c 67.32774,13.595532 126.37176,55.147891 162.54246,114.389636 5.93948,9.7279 15.46102,29.14339 19.47995,39.7218 21.77734,57.3212 21.78193,119.63299 0.013,177.1567 -4.40716,11.6458 -15.22304,33.13887 -22.04591,43.80914 -41.18707,64.41233 -108.53717,106.17948 -183.64498,113.8874 -9.64098,0.9894 -28.15969,1.65754 -35.33159,1.27472 z M 357.09973,370.69594 c 1.47559,-1.03709 3.56152,-3.13575 4.63541,-4.6637 1.84712,-2.62814 1.95252,-3.11447 1.95252,-9.0097 0,-5.62943 -0.17052,-6.52166 -1.76452,-9.23322 -2.14128,-3.64251 -5.48148,-6.13516 -15.76238,-11.76285 -60.73264,-33.24457 -135.71372,-40.95229 -222.60901,-22.88324 -10.55863,2.19556 -13.19851,3.32527 -16.33611,6.99085 -2.6185,3.05912 -3.71942,6.3119 -3.71942,10.98935 0,8.78141 5.00792,14.82446 13.62477,16.44099 1.51332,0.2839 4.96068,-0.21797 10.59152,-1.54192 11.03516,-2.59464 28.89441,-5.57474 42.84668,-7.14964 49.76587,-5.61746 93.07305,-1.14122 131.97601,13.64107 8.47924,3.22192 21.60104,9.49434 35.66372,17.04778 l 6.75307,3.62726 4.73242,-0.30371 c 3.90015,-0.2503 5.20426,-0.63532 7.41532,-2.18932 z m 27.34409,-65.4412 c 7.0269,-3.34736 10.60523,-9.3647 10.58644,-17.80223 -0.0122,-5.49652 -1.12469,-9.4727 -3.68574,-13.17378 -5.76414,-8.32998 -43.76697,-26.46362 -75.67912,-36.11144 -35.83242,-10.83303 -69.71919,-15.66053 -109.64021,-15.61934 -26.03077,0.0269 -42.23689,1.40684 -63.83879,5.43598 -11.32834,2.11294 -30.77622,6.92274 -36.162,8.9435 -7.676757,2.88034 -12.149884,9.13637 -12.703785,17.76727 -0.449889,7.01024 1.064741,11.27822 5.629111,15.8619 6.413544,6.44068 12.213724,7.21106 26.055644,3.46073 59.82635,-16.20938 128.78892,-13.58923 189.48002,7.19908 15.16206,5.1934 29.16686,11.404 43.36295,19.22979 14.77171,8.14314 18.26827,8.77532 26.59548,4.80854 z m 32.33979,-76.26011 c 7.37839,-3.79364 11.85147,-9.88535 12.84153,-17.48833 1.13048,-8.68138 -1.19045,-16.94976 -6.10089,-21.73465 -9.57796,-9.33305 -47.32883,-25.88854 -80.58808,-35.34157 -69.30254,-19.69734 -157.05267,-22.81546 -225.80702,-8.02384 -10.95031,2.35582 -24.529114,6.09267 -27.496908,7.56708 -9.024464,4.48337 -13.673012,12.98272 -13.094929,23.94258 0.483105,9.15903 4.853947,16.03496 12.624811,19.86054 4.0247,1.98136 4.742584,2.12102 10.773937,2.09601 5.300249,-0.022 7.739349,-0.39694 13.567699,-2.08581 14.9923,-4.34427 35.6217,-8.01307 57.70027,-10.2616 14.05932,-1.43184 62.77169,-1.64341 76.73552,-0.33329 60.16505,5.64483 105.93688,17.98503 142.09772,38.30991 9.61293,5.40312 10.64958,5.72754 17.49925,5.47634 4.8018,-0.17611 6.39791,-0.51845 9.24709,-1.98337 z"
     id="path1253" />
</svg>
