<?xml version="1.0" encoding="UTF-8" standalone="no"?>
<!-- Uploaded to: SVG Repo, www.svgrepo.com, Generator: SVG Repo Mixer Tools -->

<svg
   width="604.03223"
   height="700"
   version="1.1"
   id="svg10"
   sodipodi:docname="transmission.svg"
   inkscape:version="1.2.2 (b0a8486, 2022-12-01)"
   xmlns:inkscape="http://www.inkscape.org/namespaces/inkscape"
   xmlns:sodipodi="http://sodipodi.sourceforge.net/DTD/sodipodi-0.dtd"
   xmlns="http://www.w3.org/2000/svg"
   xmlns:svg="http://www.w3.org/2000/svg"
   xmlns:rdf="http://www.w3.org/1999/02/22-rdf-syntax-ns#"
   xmlns:cc="http://creativecommons.org/ns#"
   xmlns:dc="http://purl.org/dc/elements/1.1/">
  <defs
     id="defs14" />
  <sodipodi:namedview
     id="namedview12"
     pagecolor="#505050"
     bordercolor="#eeeeee"
     borderopacity="1"
     inkscape:showpageshadow="0"
     inkscape:pageopacity="0"
     inkscape:pagecheckerboard="0"
     inkscape:deskcolor="#505050"
     showgrid="false"
     inkscape:zoom="1"
     inkscape:cx="271.5"
     inkscape:cy="322"
     inkscape:window-width="1390"
     inkscape:window-height="972"
     inkscape:window-x="1970"
     inkscape:window-y="25"
     inkscape:window-maximized="0"
     inkscape:current-layer="svg10" />
  <title
     id="title2">Clarity Icon</title>
  <desc
     id="desc4">This is shape (source) for Clarity vector icon theme for gtk</desc>
  <metadata
     id="metadata6">
    <rdf:RDF>
      <cc:Work
         rdf:about="">
        <dc:title>Clarity Icon</dc:title>
        <dc:description>This is shape (source) for Clarity vector icon theme for gtk</dc:description>
        <dc:creator>
          <cc:Agent>
            <dc:title>Jakub Jankiewicz</dc:title>
          </cc:Agent>
        </dc:creator>
        <dc:rights>
          <cc:Agent>
            <dc:title>Jakub Jankiewicz</dc:title>
          </cc:Agent>
        </dc:rights>
        <dc:date>2010</dc:date>
        <dc:format>image/svg+xml</dc:format>
        <dc:type
           rdf:resource="http://purl.org/dc/dcmitype/StillImage" />
        <cc:license
           rdf:resource="http://creativecommons.org/licenses/by-sa/3.0/" />
      </cc:Work>
    </rdf:RDF>
  </metadata>
  <path
     style="fill:#008000;fill-opacity:1;stroke-width:1.0602"
     d="M 20.178666,697.42878 C 13.80784,694.29663 7.120938,687.25569 3.671861,680.0477 c -5.81701,-12.15649 -6.47699,0.82954 11.242011,-221.20911 9.148354,-114.63868 16.905973,-206.28459 17.83768,-210.72798 4.605746,-21.96452 19.436051,-39.54774 38.989568,-46.22715 5.29316,-1.80812 11.8141,-1.98384 85.67701,-2.3088 l 79.94785,-0.35175 v -37.11194 -37.11194 l -4.42707,-0.55736 c -2.43491,-0.3065 -12.8646,-1.3317 -23.17707,-2.27814 C 150.17815,116.69516 98.59542,104.40501 70.24296,88.921622 59.858589,83.250662 50.578323,74.165498 48.764745,67.894953 40.597932,39.657762 109.18363,13.489525 217.57431,3.4872056 284.31156,-2.6713226 367.76299,-0.55441959 431.00318,8.901219 507.94074,20.404887 555.074,40.988802 555.074,63.085147 c 0,6.261046 -1.82831,9.589515 -9.09437,16.556718 -20.11685,19.289385 -83.13297,36.658925 -156.00966,43.001935 -7.44793,0.64826 -16.00255,1.44854 -19.01042,1.77845 l -5.46876,0.59983 v 37.09507 37.09504 l 80.46869,0.35445 c 78.77881,0.34702 80.59006,0.40205 86.24791,2.61978 9.45955,3.70782 13.93674,6.44189 20.09187,12.26938 10.61063,10.04567 17.99323,25.07488 19.86432,40.43876 1.35072,11.09127 31.86867,400.0121 31.86867,406.13473 0,16.81132 -10.17119,32.9 -23.85329,37.73087 -2.64894,0.93535 -72.97031,1.24757 -279.16644,1.2397 l -275.625514,-0.0113 -5.20834,-2.56054 z M 517.05315,589.08083 c 5.64721,-2.69236 10.97905,-7.48686 14.07442,-12.65593 4.72999,-7.89866 5.01166,-3.50646 -9.92991,-154.81418 -7.70672,-78.04368 -14.29962,-143.83988 -14.65072,-146.21383 -1.55519,-10.51346 -7.75007,-20.00181 -16.24002,-24.87367 l -5.54536,-3.18212 -59.6354,-0.30349 -59.63537,-0.3035 v 10.28493 10.28495 h 57.37178 57.37169 l 2.99153,3.09897 c 1.64532,1.70438 3.25281,4.2537 3.57212,5.66508 0.3191,1.41141 6.90551,66.57394 14.63599,144.80566 9.95734,100.76638 13.75386,142.82327 13.02102,144.24177 -0.56861,1.10128 -2.27244,3.01109 -3.78567,4.24418 l -2.7512,2.24176 -209.49467,-0.004 c -206.4228,-0.006 -209.54397,-0.0353 -212.85223,-2.12545 -1.91974,-1.21258 -3.66849,-3.40438 -4.08378,-5.11868 -0.76312,-3.1495 26.14631,-280.3611 27.93065,-287.73224 0.55523,-2.2938 2.12752,-5.32868 3.49396,-6.74417 l 2.4844,-2.57336 h 60.98479 60.98481 v -10.2512 -10.25116 h -60.74839 c -68.09236,0 -67.65239,-0.043 -75.85317,7.43476 -6.14225,5.60071 -9.95317,13.14536 -11.26972,22.3112 -2.99807,20.87211 -28.284907,283.30368 -27.832367,288.84957 1.027167,12.58777 10.523427,22.80861 24.141267,25.98342 1.14583,0.26766 97.47387,0.41757 214.06226,0.33485 l 211.97899,-0.15109 z m -136.19882,-88.52585 72.13423,-44.9536 -25.20971,-0.53955 -25.20964,-0.53957 -6.42482,-33.45112 c -3.53364,-18.39809 -10.54711,-55.18085 -15.58548,-81.73942 l -9.16058,-48.28833 h -2.95373 -2.95381 v 17.11795 c 0,16.95659 -0.0265,17.14415 -2.68425,19.89858 -1.47631,1.52936 -3.70287,2.93091 -4.94783,3.11458 -2.16814,0.31988 -2.40429,1.60141 -5.5938,30.35534 -3.89241,35.09033 -4.63245,37.31208 -14.04684,42.17193 l -5.42794,2.80199 -31.30582,-0.0234 c -34.77352,-0.0264 -36.79348,-0.37591 -42.45736,-7.34883 -3.99134,-4.91376 -4.65237,-7.94456 -7.57079,-34.71115 -3.74816,-34.37748 -3.58709,-33.45115 -5.81707,-33.45115 -1.04885,0 -3.22218,-1.17078 -4.82964,-2.60171 l -2.92264,-2.6017 -0.33176,-17.36102 -0.33178,-17.36107 h -2.46237 c -1.44403,0 -2.68649,0.78091 -3.00442,1.88838 -0.29838,1.03861 -7.15697,37.09299 -15.24177,80.12085 -8.0848,43.02787 -14.93256,79.07368 -15.21735,80.10183 -0.46962,1.69626 -2.85047,1.89607 -25.71383,2.15813 l -25.19608,0.28887 75.52078,47.11238 75.52076,47.11242 3.64583,-2.15881 c 2.00516,-1.18755 36.10619,-22.38812 75.78005,-47.1126 z"
     id="path1005" />
</svg>
