<?xml version="1.0" encoding="UTF-8" standalone="no"?>
<svg
   viewBox="0 0 512 512"
   version="1.1"
   id="svg1225"
   sodipodi:docname="twitter.svg"
   inkscape:version="1.2.2 (b0a8486, 2022-12-01)"
   xmlns:inkscape="http://www.inkscape.org/namespaces/inkscape"
   xmlns:sodipodi="http://sodipodi.sourceforge.net/DTD/sodipodi-0.dtd"
   xmlns="http://www.w3.org/2000/svg"
   xmlns:svg="http://www.w3.org/2000/svg">
  <defs
     id="defs1229" />
  <sodipodi:namedview
     id="namedview1227"
     pagecolor="#505050"
     bordercolor="#eeeeee"
     borderopacity="1"
     inkscape:showpageshadow="0"
     inkscape:pageopacity="0"
     inkscape:pagecheckerboard="0"
     inkscape:deskcolor="#505050"
     showgrid="false"
     inkscape:zoom="1.5507812"
     inkscape:cx="255.67758"
     inkscape:cy="256"
     inkscape:window-width="1920"
     inkscape:window-height="972"
     inkscape:window-x="1440"
     inkscape:window-y="25"
     inkscape:window-maximized="1"
     inkscape:current-layer="svg1225" />
  <!--! Font Awesome Pro 6.2.1 by @fontawesome - https://fontawesome.com License - https://fontawesome.com/license (Commercial License) Copyright 2022 Fonticons, Inc. -->
  <path
     d="M459.37 151.716c.325 4.548.325 9.097.325 13.645 0 138.72-105.583 298.558-298.558 298.558-59.452 0-114.68-17.219-161.137-47.106 8.447.974 16.568 1.299 25.34 1.299 49.055 0 94.213-16.568 130.274-44.832-46.132-.975-84.792-31.188-98.112-72.772 6.498.974 12.995 1.624 19.818 1.624 9.421 0 18.843-1.3 27.614-3.573-48.081-9.747-84.143-51.98-84.143-102.985v-1.299c13.969 7.797 30.214 12.67 47.431 13.319-28.264-18.843-46.781-51.005-46.781-87.391 0-19.492 5.197-37.36 14.294-52.954 51.655 63.675 129.3 105.258 216.365 109.807-1.624-7.797-2.599-15.918-2.599-24.04 0-57.828 46.782-104.934 104.934-104.934 30.213 0 57.502 12.67 76.67 33.137 23.715-4.548 46.456-13.32 66.599-25.34-7.798 24.366-24.366 44.833-46.132 57.827 21.117-2.273 41.584-8.122 60.426-16.243-14.292 20.791-32.161 39.308-52.628 54.253z"
     id="path1223" />
  <path
     style="fill:#008000;fill-opacity:1;stroke-width:0.644836"
     d="M 136.38287,462.60481 C 92.751663,458.81076 50.665291,445.77887 13.847267,424.66212 8.7138899,421.7179 4.0449715,418.9816 3.4718929,418.58145 c -0.7827796,-0.54657 4.2697921,-0.72978 20.3123421,-0.73651 17.018289,-0.007 22.92552,-0.24008 29.092339,-1.14715 27.896527,-4.10329 49.695356,-11.19026 73.511336,-23.89913 7.28644,-3.88824 23.422,-14.30288 27.36268,-17.66113 l 2.21407,-1.88683 -7.6496,-0.77553 c -8.63404,-0.87533 -16.28719,-2.45472 -23.86166,-4.92433 -7.58301,-2.4724 -21.04958,-9.35999 -28.035462,-14.33897 C 88.605559,347.64383 77.957191,336.9974 72.375682,329.174 66.84977,321.42852 57.284237,302.19263 58.454624,301.17933 c 0.124012,-0.10736 2.111623,0.0498 4.416913,0.34918 8.111924,1.05359 24.260513,0.70858 32.457279,-0.69344 9.517344,-1.6279 10.763054,-2.21162 6.850104,-3.2099 C 80.987715,292.21891 64.536015,282.73253 50.063924,267.57465 36.750638,253.63049 27.585566,236.49239 23.597105,218.0834 c -1.401263,-6.46762 -3.10929,-22.12117 -2.482166,-22.7483 0.196116,-0.19611 2.060775,0.50371 4.143689,1.55516 8.579792,4.33107 18.505363,7.5871 28.585201,9.37725 6.02442,1.06991 14.831234,1.98532 14.831234,1.54161 0,-0.15482 -2.558749,-2.19223 -5.686102,-4.52761 C 51.122558,194.42021 38.717809,179.2853 32.285172,165.82014 18.65497,137.28863 18.327845,104.69994 31.387703,76.413098 c 4.345461,-9.411998 3.714858,-9.168399 8.73378,-3.37382 24.554338,28.349122 51.406468,50.165992 83.761547,68.054752 34.2293,18.925 76.37182,31.81991 115.02881,35.1969 14.28193,1.24764 13.65538,1.2585 13.28296,-0.23029 -0.18024,-0.72051 -0.77614,-4.73445 -1.32422,-8.91986 -4.34507,-33.18075 6.52337,-64.93492 30.28071,-88.470755 14.3541,-14.220267 31.78588,-23.606413 52.38478,-28.206598 5.42932,-1.212486 8.2832,-1.407193 20.80146,-1.41919 12.63937,-0.01211 15.34833,0.170674 21.02428,1.41862 18.99271,4.175843 36.5942,13.234135 49.71365,25.584239 l 5.92579,5.578282 7.61272,-1.696649 c 15.80477,-3.522408 37.46133,-11.658952 51.27795,-19.26554 3.58962,-1.976224 6.64182,-3.477901 6.78266,-3.337061 0.40466,0.404669 -4.20673,11.243849 -6.74863,15.862789 -7.03708,12.787202 -18.1153,25.525933 -29.50206,33.924093 -3.55254,2.62013 -7.03951,5.20919 -7.74883,5.75347 -1.18645,0.9104 -0.95422,0.95725 2.90177,0.5854 7.02291,-0.67724 22.4081,-3.93617 31.47289,-6.66666 8.26909,-2.49081 19.70055,-6.54626 22.1545,-7.85957 1.94471,-1.040777 1.40742,-0.03187 -3.36262,6.31424 -12.06678,16.05377 -30.31715,34.3664 -44.13883,44.28941 l -2.57934,1.85179 0.22694,9.42784 c 0.38926,16.17143 -1.44863,37.81724 -4.75684,56.02348 -12.28771,67.6238 -47.77058,131.22516 -97.67665,175.08073 -47.14687,41.43088 -102.49839,64.69109 -167.65743,70.45419 -11.50922,1.01796 -42.31036,1.15629 -52.87658,0.23748 z"
     id="path1231" />
</svg>
