<?xml version="1.0" encoding="UTF-8" standalone="no"?>
<!-- Uploaded to: SVG Repo, www.svgrepo.com, Generator: SVG Repo Mixer Tools -->

<svg
   width="800px"
   height="800px"
   viewBox="-12.5 0 281 281"
   version="1.1"
   preserveAspectRatio="xMidYMid"
   id="svg2339"
   sodipodi:docname="webmin.svg"
   inkscape:version="1.2.2 (b0a8486, 2022-12-01)"
   xmlns:inkscape="http://www.inkscape.org/namespaces/inkscape"
   xmlns:sodipodi="http://sodipodi.sourceforge.net/DTD/sodipodi-0.dtd"
   xmlns="http://www.w3.org/2000/svg"
   xmlns:svg="http://www.w3.org/2000/svg">
  <defs
     id="defs2343" />
  <sodipodi:namedview
     id="namedview2341"
     pagecolor="#505050"
     bordercolor="#eeeeee"
     borderopacity="1"
     inkscape:showpageshadow="0"
     inkscape:pageopacity="0"
     inkscape:pagecheckerboard="0"
     inkscape:deskcolor="#505050"
     showgrid="false"
     inkscape:zoom="0.5"
     inkscape:cx="343"
     inkscape:cy="378"
     inkscape:window-width="1920"
     inkscape:window-height="972"
     inkscape:window-x="1440"
     inkscape:window-y="25"
     inkscape:window-maximized="1"
     inkscape:current-layer="svg2339"
     showguides="true" />
  <path
     style="fill:#008000;fill-opacity:1;stroke-width:1.008;stroke-dasharray:none"
     d="m 317.38035,798.86818 c -20.57147,-3.11909 -33.47042,-7.16042 -49.99224,-15.66293 -42.47433,-21.85827 -74.72852,-64.11276 -87.41374,-114.51604 -5.01977,-19.94544 -6.52808,-33.25292 -6.60551,-58.27859 l -0.0691,-22.33496 -10.07557,-3.71593 C 132.04161,572.85942 104.28291,554.25456 84.336058,531.48615 29.668499,469.08563 20.630573,386.17884 61.722529,324.04749 c 6.72532,-10.16874 22.020099,-26.35402 31.864858,-33.7201 14.566603,-10.8991 23.028403,-14.82687 109.939063,-51.03115 17.733,-7.38702 32.61588,-13.75316 33.07307,-14.14698 0.45719,-0.39382 -1.53412,-28.5435 -4.42512,-62.55482 -5.57127,-65.543244 -6.24134,-83.168648 -3.617,-95.140185 7.25536,-33.097011 26.14478,-54.291064 56.61865,-63.5265029 8.14013,-2.4669546 10.61995,-2.7437748 25.15141,-2.8076285 14.57574,-0.064048 17.1832,0.2036227 27.20403,2.7926615 31.17653,8.0549479 57.53628,23.7486599 85.24648,50.7529059 l 7.66463,7.469354 6.94662,-3.498265 c 23.93421,-12.053074 49.56993,-10.931245 78.18045,3.421207 38.76842,19.448154 74.43399,61.919963 89.29321,106.333513 3.54236,10.58796 5.18469,18.8126 15.86834,79.46744 l 7.80867,44.3325 34.7224,28.71536 c 38.31105,31.68317 48.97898,41.28417 57.61308,51.85102 17.83165,21.8233 32.11799,51.81533 38.70919,81.26416 10.83063,48.39017 0.21041,91.65179 -27.4196,111.69416 -4.0773,2.95761 -6.05064,5.03591 -5.74004,6.04534 0.26033,0.84605 1.61358,6.29897 3.00722,12.11761 7.70147,32.15473 8.39277,62.28785 2.03164,88.55858 -14.76983,60.99765 -64.24355,90.64882 -111.64422,66.91188 -2.67607,-1.3401 -28.21257,-16.47282 -56.74776,-33.62828 l -51.88219,-31.19173 -39.47704,38.0501 c -21.71237,20.92754 -44.58443,42.9007 -50.8268,48.82925 -20.56033,19.52667 -40.49384,30.40657 -65.21826,35.59673 -7.77803,1.63278 -32.02364,2.81225 -38.28716,1.86256 z m 30.466,-118.53965 c 10.4338,-3.62852 18.58543,-9.42552 48.75465,-34.67169 91.98322,-76.97332 86.26096,-72.75876 99.98292,-73.63939 7.7461,-0.49712 15.70975,1.18568 22.8502,4.82846 1.99415,1.01734 26.26473,16.53481 53.93461,34.48324 27.66987,17.94842 53.27149,34.28795 56.8925,36.31003 8.09316,4.5195 18.00051,7.20369 23.40121,6.34008 17.3458,-2.7737 28.23402,-24.01571 24.95193,-48.67915 -2.0556,-15.44691 -7.33441,-26.6745 -17.58225,-37.39595 -8.72688,-9.13021 -13.16148,-12.45371 -62.03968,-46.49568 -24.10579,-16.78883 -46.3983,-32.53529 -49.53893,-34.99212 -16.53639,-12.93603 -26.1779,-35.05186 -22.99996,-52.75764 3.13181,-17.4487 13.30115,-27.31532 26.45899,-25.67135 11.00486,1.37496 12.57128,2.39729 74.79527,48.81582 22.15588,16.52808 42.5497,30.96787 46.75752,33.10654 6.70332,3.40703 8.24903,3.79304 15.18831,3.79304 6.85992,0 8.12973,-0.30803 11.33337,-2.74921 7.72007,-5.88272 11.47329,-16.92285 10.54013,-31.00394 -1.07574,-16.23291 -7.10272,-29.33893 -18.94964,-41.20711 -3.66676,-3.67334 -26.56348,-22.31504 -50.88161,-41.42602 -46.97701,-36.91798 -55.51303,-44.45394 -60.68911,-53.57891 -7.2535,-12.78727 -9.08122,-20.91258 -19.33465,-85.9542 -8.92886,-56.63938 -10.42556,-64.43026 -14.4203,-75.06298 -4.07238,-10.83937 -9.0918,-18.38959 -17.37958,-26.14241 -7.44672,-6.96603 -15.44375,-11.372 -23.76168,-13.09149 -15.01044,-3.10298 -25.71425,4.78539 -27.95405,20.60126 -1.36908,9.6675 -0.37421,18.62261 9.20367,82.84428 6.79392,45.5546 8.24113,57.39391 8.29385,67.84953 0.0614,12.16532 -0.0564,12.9017 -2.98149,18.6398 -11.76562,23.08088 -46.50536,15.08405 -61.58773,-14.17704 -7.05761,-13.69234 -6.66001,-11.55711 -16.50976,-88.66498 -9.66578,-75.66773 -9.77117,-76.24235 -16.63633,-90.7093 -13.63964,-28.742804 -45.64704,-44.944021 -67.58622,-34.210184 -9.05178,4.428628 -12.95869,11.525047 -14.0398,25.501644 -0.62407,8.0677 0.1151,16.00487 9.30543,99.92161 5.53318,50.52348 5.988,63.70625 2.50556,72.62403 -4.66295,11.9408 -8.04648,14.32848 -50.54184,35.66617 -53.79231,27.01011 -92.28661,47.14788 -100.45073,52.54947 -17.56662,11.6225 -25.45511,25.47342 -25.48189,44.7421 -0.0233,16.7453 6.44157,32.41574 18.64097,45.1847 16.32868,17.09104 36.03645,23.10017 58.42516,17.81452 12.00791,-2.8349 25.31506,-10.15108 82.45155,-45.33135 30.38614,-18.70946 57.81687,-35.2217 60.95718,-36.69387 4.92469,-2.30868 7.02559,-2.67667 15.28144,-2.67667 8.69181,0 10.20183,0.29841 16.4248,3.24595 17.14591,8.12124 30.93037,30.58308 30.93037,50.40122 0,13.393 -3.87792,22.98303 -12.79982,31.65373 -2.65784,2.58301 -28.63595,21.6799 -57.72915,42.43756 -54.89314,39.1656 -65.69332,47.60349 -73.8563,57.70194 -15.8328,19.58679 -17.92513,45.72066 -5.66552,70.76388 7.44321,15.2045 23.43357,28.35425 38.21199,31.42378 6.75998,1.40407 17.07489,0.46805 24.92444,-2.26175 z"
     id="path1573"
     transform="matrix(0.35125,0,0,0.35125,-12.5,0)" />
</svg>
